<mxfile host="app.diagrams.net" agent="Mozilla/5.0 (Windows NT 10.0; Win64; x64) AppleWebKit/537.36 (KHTML, like Gecko) Chrome/138.0.0.0 Safari/537.36" version="27.2.0">
  <diagram name="Seite-1" id="7ZGZH28CaKWqP7HjTRxJ">
    <mxGraphModel dx="4753" dy="2590" grid="1" gridSize="10" guides="1" tooltips="1" connect="1" arrows="1" fold="1" page="1" pageScale="1" pageWidth="827" pageHeight="1169" math="0" shadow="0">
      <root>
        <mxCell id="0" />
        <mxCell id="1" parent="0" />
        <mxCell id="gtbVg4Q-vgPY787Ot35W-4" value="" style="swimlane;whiteSpace=wrap;html=1;startSize=30;" parent="1" vertex="1">
          <mxGeometry x="143" y="90" width="527" height="1220" as="geometry" />
        </mxCell>
        <mxCell id="gtbVg4Q-vgPY787Ot35W-8" value="Kontakt" style="rounded=0;whiteSpace=wrap;html=1;" parent="gtbVg4Q-vgPY787Ot35W-4" vertex="1">
          <mxGeometry x="467" width="60" height="30" as="geometry" />
        </mxCell>
        <mxCell id="gtbVg4Q-vgPY787Ot35W-7" value="Über mich" style="rounded=0;whiteSpace=wrap;html=1;" parent="gtbVg4Q-vgPY787Ot35W-4" vertex="1">
          <mxGeometry x="407" width="60" height="30" as="geometry" />
        </mxCell>
        <mxCell id="gtbVg4Q-vgPY787Ot35W-6" value="Projekte" style="rounded=0;whiteSpace=wrap;html=1;" parent="gtbVg4Q-vgPY787Ot35W-4" vertex="1">
          <mxGeometry x="346.25" width="60" height="30" as="geometry" />
        </mxCell>
        <mxCell id="gtbVg4Q-vgPY787Ot35W-5" value="Home" style="rounded=0;whiteSpace=wrap;html=1;" parent="gtbVg4Q-vgPY787Ot35W-4" vertex="1">
          <mxGeometry x="286.25" width="60" height="30" as="geometry" />
        </mxCell>
        <mxCell id="gtbVg4Q-vgPY787Ot35W-10" value="" style="rounded=0;whiteSpace=wrap;html=1;" parent="gtbVg4Q-vgPY787Ot35W-4" vertex="1">
          <mxGeometry x="17" y="50" width="493" height="270" as="geometry" />
        </mxCell>
        <mxCell id="gtbVg4Q-vgPY787Ot35W-11" value="Grundinfos über mich" style="rounded=0;whiteSpace=wrap;html=1;" parent="gtbVg4Q-vgPY787Ot35W-4" vertex="1">
          <mxGeometry x="47" y="80" width="433" height="120" as="geometry" />
        </mxCell>
        <mxCell id="gtbVg4Q-vgPY787Ot35W-13" value="" style="rounded=0;whiteSpace=wrap;html=1;" parent="gtbVg4Q-vgPY787Ot35W-4" vertex="1">
          <mxGeometry x="17" y="330" width="493" height="160" as="geometry" />
        </mxCell>
        <mxCell id="gtbVg4Q-vgPY787Ot35W-14" value="Skills" style="rounded=0;whiteSpace=wrap;html=1;" parent="gtbVg4Q-vgPY787Ot35W-4" vertex="1">
          <mxGeometry x="163.5" y="350" width="200" height="20" as="geometry" />
        </mxCell>
        <mxCell id="gtbVg4Q-vgPY787Ot35W-15" value="Coding" style="whiteSpace=wrap;html=1;aspect=fixed;" parent="gtbVg4Q-vgPY787Ot35W-4" vertex="1">
          <mxGeometry x="97" y="380" width="80" height="80" as="geometry" />
        </mxCell>
        <mxCell id="gtbVg4Q-vgPY787Ot35W-16" value="Gaming" style="whiteSpace=wrap;html=1;aspect=fixed;" parent="gtbVg4Q-vgPY787Ot35W-4" vertex="1">
          <mxGeometry x="224.25" y="380" width="80" height="80" as="geometry" />
        </mxCell>
        <mxCell id="gtbVg4Q-vgPY787Ot35W-17" value="Musik" style="whiteSpace=wrap;html=1;aspect=fixed;" parent="gtbVg4Q-vgPY787Ot35W-4" vertex="1">
          <mxGeometry x="355" y="380" width="80" height="80" as="geometry" />
        </mxCell>
        <mxCell id="gtbVg4Q-vgPY787Ot35W-19" value="" style="rounded=0;whiteSpace=wrap;html=1;" parent="gtbVg4Q-vgPY787Ot35W-4" vertex="1">
          <mxGeometry x="17" y="500" width="493" height="270" as="geometry" />
        </mxCell>
        <mxCell id="gtbVg4Q-vgPY787Ot35W-21" value="Ausgewählte Projekte" style="rounded=0;whiteSpace=wrap;html=1;" parent="gtbVg4Q-vgPY787Ot35W-4" vertex="1">
          <mxGeometry x="163.5" y="520" width="200" height="20" as="geometry" />
        </mxCell>
        <mxCell id="gtbVg4Q-vgPY787Ot35W-24" value="" style="rounded=0;whiteSpace=wrap;html=1;" parent="gtbVg4Q-vgPY787Ot35W-4" vertex="1">
          <mxGeometry x="47" y="560" width="143" height="130" as="geometry" />
        </mxCell>
        <mxCell id="gtbVg4Q-vgPY787Ot35W-27" value="[Bild]" style="whiteSpace=wrap;html=1;aspect=fixed;" parent="gtbVg4Q-vgPY787Ot35W-4" vertex="1">
          <mxGeometry x="57" y="570" width="73" height="73" as="geometry" />
        </mxCell>
        <mxCell id="gtbVg4Q-vgPY787Ot35W-28" value="Beschreibung" style="rounded=0;whiteSpace=wrap;html=1;" parent="gtbVg4Q-vgPY787Ot35W-4" vertex="1">
          <mxGeometry x="51.25" y="650" width="94.5" height="30" as="geometry" />
        </mxCell>
        <mxCell id="gtbVg4Q-vgPY787Ot35W-36" value="Alle Projekte ansehen" style="rounded=0;whiteSpace=wrap;html=1;" parent="gtbVg4Q-vgPY787Ot35W-4" vertex="1">
          <mxGeometry x="203.5" y="710" width="120" height="30" as="geometry" />
        </mxCell>
        <mxCell id="gtbVg4Q-vgPY787Ot35W-37" value="" style="rounded=0;whiteSpace=wrap;html=1;" parent="gtbVg4Q-vgPY787Ot35W-4" vertex="1">
          <mxGeometry x="18.5" y="780" width="493" height="130" as="geometry" />
        </mxCell>
        <mxCell id="gtbVg4Q-vgPY787Ot35W-38" value="Motivational Quote" style="rounded=0;whiteSpace=wrap;html=1;" parent="gtbVg4Q-vgPY787Ot35W-4" vertex="1">
          <mxGeometry x="30" y="790" width="470" height="110" as="geometry" />
        </mxCell>
        <mxCell id="gtbVg4Q-vgPY787Ot35W-41" value="" style="rounded=0;whiteSpace=wrap;html=1;" parent="gtbVg4Q-vgPY787Ot35W-4" vertex="1">
          <mxGeometry x="18.5" y="920" width="493" height="180" as="geometry" />
        </mxCell>
        <mxCell id="gtbVg4Q-vgPY787Ot35W-82" value="Newsletter abonieren" style="rounded=0;whiteSpace=wrap;html=1;" parent="gtbVg4Q-vgPY787Ot35W-4" vertex="1">
          <mxGeometry x="131" y="940" width="280" height="140" as="geometry" />
        </mxCell>
        <mxCell id="gtbVg4Q-vgPY787Ot35W-238" value="Footer" style="rounded=0;whiteSpace=wrap;html=1;" parent="gtbVg4Q-vgPY787Ot35W-4" vertex="1">
          <mxGeometry x="17" y="1120" width="493" height="90" as="geometry" />
        </mxCell>
        <mxCell id="bo42On-PqFUs2xds5eUP-1" value="Projektverfügbarkeit" style="rounded=0;whiteSpace=wrap;html=1;" vertex="1" parent="gtbVg4Q-vgPY787Ot35W-4">
          <mxGeometry x="47" y="210" width="433" height="80" as="geometry" />
        </mxCell>
        <mxCell id="bo42On-PqFUs2xds5eUP-2" value="Aktivität" style="rounded=0;whiteSpace=wrap;html=1;" vertex="1" parent="gtbVg4Q-vgPY787Ot35W-4">
          <mxGeometry x="147" y="650" width="43" height="30" as="geometry" />
        </mxCell>
        <mxCell id="bo42On-PqFUs2xds5eUP-3" value="" style="rounded=0;whiteSpace=wrap;html=1;" vertex="1" parent="gtbVg4Q-vgPY787Ot35W-4">
          <mxGeometry x="195" y="560" width="143" height="130" as="geometry" />
        </mxCell>
        <mxCell id="bo42On-PqFUs2xds5eUP-4" value="[Bild]" style="whiteSpace=wrap;html=1;aspect=fixed;" vertex="1" parent="gtbVg4Q-vgPY787Ot35W-4">
          <mxGeometry x="205" y="570" width="73" height="73" as="geometry" />
        </mxCell>
        <mxCell id="bo42On-PqFUs2xds5eUP-5" value="Beschreibung" style="rounded=0;whiteSpace=wrap;html=1;" vertex="1" parent="gtbVg4Q-vgPY787Ot35W-4">
          <mxGeometry x="199.25" y="650" width="94.5" height="30" as="geometry" />
        </mxCell>
        <mxCell id="bo42On-PqFUs2xds5eUP-6" value="Aktivität" style="rounded=0;whiteSpace=wrap;html=1;" vertex="1" parent="gtbVg4Q-vgPY787Ot35W-4">
          <mxGeometry x="295" y="650" width="43" height="30" as="geometry" />
        </mxCell>
        <mxCell id="bo42On-PqFUs2xds5eUP-7" value="" style="rounded=0;whiteSpace=wrap;html=1;" vertex="1" parent="gtbVg4Q-vgPY787Ot35W-4">
          <mxGeometry x="342" y="560" width="143" height="130" as="geometry" />
        </mxCell>
        <mxCell id="bo42On-PqFUs2xds5eUP-8" value="[Bild]" style="whiteSpace=wrap;html=1;aspect=fixed;" vertex="1" parent="gtbVg4Q-vgPY787Ot35W-4">
          <mxGeometry x="352" y="570" width="73" height="73" as="geometry" />
        </mxCell>
        <mxCell id="bo42On-PqFUs2xds5eUP-9" value="Beschreibung" style="rounded=0;whiteSpace=wrap;html=1;" vertex="1" parent="gtbVg4Q-vgPY787Ot35W-4">
          <mxGeometry x="346.25" y="650" width="94.5" height="30" as="geometry" />
        </mxCell>
        <mxCell id="bo42On-PqFUs2xds5eUP-10" value="Aktivität" style="rounded=0;whiteSpace=wrap;html=1;" vertex="1" parent="gtbVg4Q-vgPY787Ot35W-4">
          <mxGeometry x="442" y="650" width="43" height="30" as="geometry" />
        </mxCell>
        <mxCell id="gtbVg4Q-vgPY787Ot35W-114" value="" style="swimlane;whiteSpace=wrap;html=1;startSize=30;" parent="1" vertex="1">
          <mxGeometry x="770" y="90" width="520" height="720" as="geometry" />
        </mxCell>
        <mxCell id="gtbVg4Q-vgPY787Ot35W-115" value="Kontakt" style="rounded=0;whiteSpace=wrap;html=1;" parent="gtbVg4Q-vgPY787Ot35W-114" vertex="1">
          <mxGeometry x="460" width="60" height="30" as="geometry" />
        </mxCell>
        <mxCell id="gtbVg4Q-vgPY787Ot35W-116" value="Über mich" style="rounded=0;whiteSpace=wrap;html=1;" parent="gtbVg4Q-vgPY787Ot35W-114" vertex="1">
          <mxGeometry x="400" width="60" height="30" as="geometry" />
        </mxCell>
        <mxCell id="gtbVg4Q-vgPY787Ot35W-117" value="Projekte" style="rounded=0;whiteSpace=wrap;html=1;" parent="gtbVg4Q-vgPY787Ot35W-114" vertex="1">
          <mxGeometry x="340" width="60" height="30" as="geometry" />
        </mxCell>
        <mxCell id="gtbVg4Q-vgPY787Ot35W-118" value="Home" style="rounded=0;whiteSpace=wrap;html=1;" parent="gtbVg4Q-vgPY787Ot35W-114" vertex="1">
          <mxGeometry x="280" width="60" height="30" as="geometry" />
        </mxCell>
        <mxCell id="gtbVg4Q-vgPY787Ot35W-119" value="" style="rounded=0;whiteSpace=wrap;html=1;" parent="gtbVg4Q-vgPY787Ot35W-114" vertex="1">
          <mxGeometry x="17" y="50" width="493" height="550" as="geometry" />
        </mxCell>
        <mxCell id="gtbVg4Q-vgPY787Ot35W-239" value="" style="rounded=0;whiteSpace=wrap;html=1;" parent="gtbVg4Q-vgPY787Ot35W-114" vertex="1">
          <mxGeometry x="57" y="170" width="133" height="200" as="geometry" />
        </mxCell>
        <mxCell id="gtbVg4Q-vgPY787Ot35W-240" value="[Bild]" style="whiteSpace=wrap;html=1;aspect=fixed;" parent="gtbVg4Q-vgPY787Ot35W-114" vertex="1">
          <mxGeometry x="93.5" y="180" width="60" height="60" as="geometry" />
        </mxCell>
        <mxCell id="gtbVg4Q-vgPY787Ot35W-241" value="Beschreibung" style="rounded=0;whiteSpace=wrap;html=1;" parent="gtbVg4Q-vgPY787Ot35W-114" vertex="1">
          <mxGeometry x="77" y="300" width="93" height="40" as="geometry" />
        </mxCell>
        <mxCell id="gtbVg4Q-vgPY787Ot35W-242" value="Meine Projekte" style="rounded=0;whiteSpace=wrap;html=1;" parent="gtbVg4Q-vgPY787Ot35W-114" vertex="1">
          <mxGeometry x="57" y="130" width="230" height="30" as="geometry" />
        </mxCell>
        <mxCell id="gtbVg4Q-vgPY787Ot35W-250" value="Titel" style="rounded=0;whiteSpace=wrap;html=1;" parent="gtbVg4Q-vgPY787Ot35W-114" vertex="1">
          <mxGeometry x="77" y="270" width="93" height="20" as="geometry" />
        </mxCell>
        <mxCell id="gtbVg4Q-vgPY787Ot35W-251" value="&lt;div style=&quot;text-align: justify;&quot;&gt;&lt;span style=&quot;font-size: 6px; background-color: transparent; color: light-dark(rgb(0, 0, 0), rgb(255, 255, 255));&quot;&gt;Kategorie&lt;/span&gt;&lt;/div&gt;" style="rounded=0;whiteSpace=wrap;html=1;align=center;" parent="gtbVg4Q-vgPY787Ot35W-114" vertex="1">
          <mxGeometry x="77" y="250" width="93" height="16" as="geometry" />
        </mxCell>
        <mxCell id="gtbVg4Q-vgPY787Ot35W-257" value="&lt;font style=&quot;font-size: 6px;&quot;&gt;Details Ansehen&lt;/font&gt;" style="rounded=0;whiteSpace=wrap;html=1;" parent="gtbVg4Q-vgPY787Ot35W-114" vertex="1">
          <mxGeometry x="77" y="350" width="63" height="10" as="geometry" />
        </mxCell>
        <mxCell id="gtbVg4Q-vgPY787Ot35W-270" value="" style="rounded=0;whiteSpace=wrap;html=1;" parent="gtbVg4Q-vgPY787Ot35W-114" vertex="1">
          <mxGeometry x="197" y="170" width="133" height="200" as="geometry" />
        </mxCell>
        <mxCell id="gtbVg4Q-vgPY787Ot35W-271" value="[Bild]" style="whiteSpace=wrap;html=1;aspect=fixed;" parent="gtbVg4Q-vgPY787Ot35W-114" vertex="1">
          <mxGeometry x="233.5" y="180" width="60" height="60" as="geometry" />
        </mxCell>
        <mxCell id="gtbVg4Q-vgPY787Ot35W-272" value="Beschreibung" style="rounded=0;whiteSpace=wrap;html=1;" parent="gtbVg4Q-vgPY787Ot35W-114" vertex="1">
          <mxGeometry x="217" y="300" width="93" height="40" as="geometry" />
        </mxCell>
        <mxCell id="gtbVg4Q-vgPY787Ot35W-273" value="Titel" style="rounded=0;whiteSpace=wrap;html=1;" parent="gtbVg4Q-vgPY787Ot35W-114" vertex="1">
          <mxGeometry x="217" y="270" width="93" height="20" as="geometry" />
        </mxCell>
        <mxCell id="gtbVg4Q-vgPY787Ot35W-274" value="&lt;div style=&quot;text-align: justify;&quot;&gt;&lt;span style=&quot;font-size: 6px; background-color: transparent; color: light-dark(rgb(0, 0, 0), rgb(255, 255, 255));&quot;&gt;Kategorie&lt;/span&gt;&lt;/div&gt;" style="rounded=0;whiteSpace=wrap;html=1;align=center;" parent="gtbVg4Q-vgPY787Ot35W-114" vertex="1">
          <mxGeometry x="217" y="250" width="93" height="16" as="geometry" />
        </mxCell>
        <mxCell id="gtbVg4Q-vgPY787Ot35W-275" value="&lt;font style=&quot;font-size: 6px;&quot;&gt;Details Ansehen&lt;/font&gt;" style="rounded=0;whiteSpace=wrap;html=1;" parent="gtbVg4Q-vgPY787Ot35W-114" vertex="1">
          <mxGeometry x="217" y="350" width="63" height="10" as="geometry" />
        </mxCell>
        <mxCell id="gtbVg4Q-vgPY787Ot35W-276" value="" style="rounded=0;whiteSpace=wrap;html=1;" parent="gtbVg4Q-vgPY787Ot35W-114" vertex="1">
          <mxGeometry x="338" y="170" width="133" height="200" as="geometry" />
        </mxCell>
        <mxCell id="gtbVg4Q-vgPY787Ot35W-277" value="[Bild]" style="whiteSpace=wrap;html=1;aspect=fixed;" parent="gtbVg4Q-vgPY787Ot35W-114" vertex="1">
          <mxGeometry x="374.5" y="180" width="60" height="60" as="geometry" />
        </mxCell>
        <mxCell id="gtbVg4Q-vgPY787Ot35W-278" value="Beschreibung" style="rounded=0;whiteSpace=wrap;html=1;" parent="gtbVg4Q-vgPY787Ot35W-114" vertex="1">
          <mxGeometry x="358" y="300" width="93" height="40" as="geometry" />
        </mxCell>
        <mxCell id="gtbVg4Q-vgPY787Ot35W-279" value="Titel" style="rounded=0;whiteSpace=wrap;html=1;" parent="gtbVg4Q-vgPY787Ot35W-114" vertex="1">
          <mxGeometry x="358" y="270" width="93" height="20" as="geometry" />
        </mxCell>
        <mxCell id="gtbVg4Q-vgPY787Ot35W-280" value="&lt;div style=&quot;text-align: justify;&quot;&gt;&lt;span style=&quot;font-size: 6px; background-color: transparent; color: light-dark(rgb(0, 0, 0), rgb(255, 255, 255));&quot;&gt;Kategorie&lt;/span&gt;&lt;/div&gt;" style="rounded=0;whiteSpace=wrap;html=1;align=center;" parent="gtbVg4Q-vgPY787Ot35W-114" vertex="1">
          <mxGeometry x="358" y="250" width="93" height="16" as="geometry" />
        </mxCell>
        <mxCell id="gtbVg4Q-vgPY787Ot35W-281" value="&lt;font style=&quot;font-size: 6px;&quot;&gt;Details Ansehen&lt;/font&gt;" style="rounded=0;whiteSpace=wrap;html=1;" parent="gtbVg4Q-vgPY787Ot35W-114" vertex="1">
          <mxGeometry x="358" y="350" width="63" height="10" as="geometry" />
        </mxCell>
        <mxCell id="gtbVg4Q-vgPY787Ot35W-282" value="" style="rounded=0;whiteSpace=wrap;html=1;" parent="gtbVg4Q-vgPY787Ot35W-114" vertex="1">
          <mxGeometry x="57" y="380" width="133" height="200" as="geometry" />
        </mxCell>
        <mxCell id="gtbVg4Q-vgPY787Ot35W-283" value="[Bild]" style="whiteSpace=wrap;html=1;aspect=fixed;" parent="gtbVg4Q-vgPY787Ot35W-114" vertex="1">
          <mxGeometry x="93.5" y="390" width="60" height="60" as="geometry" />
        </mxCell>
        <mxCell id="gtbVg4Q-vgPY787Ot35W-284" value="Beschreibung" style="rounded=0;whiteSpace=wrap;html=1;" parent="gtbVg4Q-vgPY787Ot35W-114" vertex="1">
          <mxGeometry x="77" y="510" width="93" height="40" as="geometry" />
        </mxCell>
        <mxCell id="gtbVg4Q-vgPY787Ot35W-285" value="Titel" style="rounded=0;whiteSpace=wrap;html=1;" parent="gtbVg4Q-vgPY787Ot35W-114" vertex="1">
          <mxGeometry x="77" y="480" width="93" height="20" as="geometry" />
        </mxCell>
        <mxCell id="gtbVg4Q-vgPY787Ot35W-286" value="&lt;div style=&quot;text-align: justify;&quot;&gt;&lt;span style=&quot;font-size: 6px; background-color: transparent; color: light-dark(rgb(0, 0, 0), rgb(255, 255, 255));&quot;&gt;Kategorie&lt;/span&gt;&lt;/div&gt;" style="rounded=0;whiteSpace=wrap;html=1;align=center;" parent="gtbVg4Q-vgPY787Ot35W-114" vertex="1">
          <mxGeometry x="77" y="460" width="93" height="16" as="geometry" />
        </mxCell>
        <mxCell id="gtbVg4Q-vgPY787Ot35W-287" value="&lt;font style=&quot;font-size: 6px;&quot;&gt;Details Ansehen&lt;/font&gt;" style="rounded=0;whiteSpace=wrap;html=1;" parent="gtbVg4Q-vgPY787Ot35W-114" vertex="1">
          <mxGeometry x="77" y="560" width="63" height="10" as="geometry" />
        </mxCell>
        <mxCell id="gtbVg4Q-vgPY787Ot35W-288" value="" style="rounded=0;whiteSpace=wrap;html=1;" parent="gtbVg4Q-vgPY787Ot35W-114" vertex="1">
          <mxGeometry x="197" y="380" width="133" height="200" as="geometry" />
        </mxCell>
        <mxCell id="gtbVg4Q-vgPY787Ot35W-289" value="[Bild]" style="whiteSpace=wrap;html=1;aspect=fixed;" parent="gtbVg4Q-vgPY787Ot35W-114" vertex="1">
          <mxGeometry x="233.5" y="390" width="60" height="60" as="geometry" />
        </mxCell>
        <mxCell id="gtbVg4Q-vgPY787Ot35W-290" value="Beschreibung" style="rounded=0;whiteSpace=wrap;html=1;" parent="gtbVg4Q-vgPY787Ot35W-114" vertex="1">
          <mxGeometry x="217" y="510" width="93" height="40" as="geometry" />
        </mxCell>
        <mxCell id="gtbVg4Q-vgPY787Ot35W-291" value="Titel" style="rounded=0;whiteSpace=wrap;html=1;" parent="gtbVg4Q-vgPY787Ot35W-114" vertex="1">
          <mxGeometry x="217" y="480" width="93" height="20" as="geometry" />
        </mxCell>
        <mxCell id="gtbVg4Q-vgPY787Ot35W-292" value="&lt;div style=&quot;text-align: justify;&quot;&gt;&lt;span style=&quot;font-size: 6px; background-color: transparent; color: light-dark(rgb(0, 0, 0), rgb(255, 255, 255));&quot;&gt;Kategorie&lt;/span&gt;&lt;/div&gt;" style="rounded=0;whiteSpace=wrap;html=1;align=center;" parent="gtbVg4Q-vgPY787Ot35W-114" vertex="1">
          <mxGeometry x="217" y="460" width="93" height="16" as="geometry" />
        </mxCell>
        <mxCell id="gtbVg4Q-vgPY787Ot35W-293" value="&lt;font style=&quot;font-size: 6px;&quot;&gt;Details Ansehen&lt;/font&gt;" style="rounded=0;whiteSpace=wrap;html=1;" parent="gtbVg4Q-vgPY787Ot35W-114" vertex="1">
          <mxGeometry x="217" y="560" width="63" height="10" as="geometry" />
        </mxCell>
        <mxCell id="gtbVg4Q-vgPY787Ot35W-294" value="" style="rounded=0;whiteSpace=wrap;html=1;" parent="gtbVg4Q-vgPY787Ot35W-114" vertex="1">
          <mxGeometry x="338" y="380" width="133" height="200" as="geometry" />
        </mxCell>
        <mxCell id="gtbVg4Q-vgPY787Ot35W-295" value="[Bild]" style="whiteSpace=wrap;html=1;aspect=fixed;" parent="gtbVg4Q-vgPY787Ot35W-114" vertex="1">
          <mxGeometry x="374.5" y="390" width="60" height="60" as="geometry" />
        </mxCell>
        <mxCell id="gtbVg4Q-vgPY787Ot35W-296" value="Beschreibung" style="rounded=0;whiteSpace=wrap;html=1;" parent="gtbVg4Q-vgPY787Ot35W-114" vertex="1">
          <mxGeometry x="358" y="510" width="93" height="40" as="geometry" />
        </mxCell>
        <mxCell id="gtbVg4Q-vgPY787Ot35W-297" value="Titel" style="rounded=0;whiteSpace=wrap;html=1;" parent="gtbVg4Q-vgPY787Ot35W-114" vertex="1">
          <mxGeometry x="358" y="480" width="93" height="20" as="geometry" />
        </mxCell>
        <mxCell id="gtbVg4Q-vgPY787Ot35W-298" value="&lt;div style=&quot;text-align: justify;&quot;&gt;&lt;span style=&quot;font-size: 6px; background-color: transparent; color: light-dark(rgb(0, 0, 0), rgb(255, 255, 255));&quot;&gt;Kategorie&lt;/span&gt;&lt;/div&gt;" style="rounded=0;whiteSpace=wrap;html=1;align=center;" parent="gtbVg4Q-vgPY787Ot35W-114" vertex="1">
          <mxGeometry x="358" y="460" width="93" height="16" as="geometry" />
        </mxCell>
        <mxCell id="gtbVg4Q-vgPY787Ot35W-299" value="&lt;font style=&quot;font-size: 6px;&quot;&gt;Details Ansehen&lt;/font&gt;" style="rounded=0;whiteSpace=wrap;html=1;" parent="gtbVg4Q-vgPY787Ot35W-114" vertex="1">
          <mxGeometry x="358" y="560" width="63" height="10" as="geometry" />
        </mxCell>
        <mxCell id="bo42On-PqFUs2xds5eUP-11" value="Footer" style="rounded=0;whiteSpace=wrap;html=1;" vertex="1" parent="gtbVg4Q-vgPY787Ot35W-114">
          <mxGeometry x="13.5" y="610" width="493" height="90" as="geometry" />
        </mxCell>
        <mxCell id="gtbVg4Q-vgPY787Ot35W-172" value="&lt;b&gt;&lt;font style=&quot;font-size: 36px;&quot;&gt;index.html&lt;/font&gt;&lt;/b&gt;" style="text;html=1;align=center;verticalAlign=middle;whiteSpace=wrap;rounded=0;" parent="1" vertex="1">
          <mxGeometry x="264" y="50" width="300" height="30" as="geometry" />
        </mxCell>
        <mxCell id="gtbVg4Q-vgPY787Ot35W-174" value="&lt;span style=&quot;font-size: 36px;&quot;&gt;&lt;b&gt;projects.html&lt;/b&gt;&lt;/span&gt;" style="text;html=1;align=center;verticalAlign=middle;whiteSpace=wrap;rounded=0;" parent="1" vertex="1">
          <mxGeometry x="883.5" y="50" width="300" height="30" as="geometry" />
        </mxCell>
        <mxCell id="gtbVg4Q-vgPY787Ot35W-175" value="" style="swimlane;whiteSpace=wrap;html=1;startSize=30;" parent="1" vertex="1">
          <mxGeometry x="1390" y="80" width="520" height="1000" as="geometry" />
        </mxCell>
        <mxCell id="gtbVg4Q-vgPY787Ot35W-176" value="Kontakt" style="rounded=0;whiteSpace=wrap;html=1;" parent="gtbVg4Q-vgPY787Ot35W-175" vertex="1">
          <mxGeometry x="460" width="60" height="30" as="geometry" />
        </mxCell>
        <mxCell id="gtbVg4Q-vgPY787Ot35W-177" value="Über mich" style="rounded=0;whiteSpace=wrap;html=1;" parent="gtbVg4Q-vgPY787Ot35W-175" vertex="1">
          <mxGeometry x="400" width="60" height="30" as="geometry" />
        </mxCell>
        <mxCell id="gtbVg4Q-vgPY787Ot35W-178" value="Projekte" style="rounded=0;whiteSpace=wrap;html=1;" parent="gtbVg4Q-vgPY787Ot35W-175" vertex="1">
          <mxGeometry x="340" width="60" height="30" as="geometry" />
        </mxCell>
        <mxCell id="gtbVg4Q-vgPY787Ot35W-179" value="Home" style="rounded=0;whiteSpace=wrap;html=1;" parent="gtbVg4Q-vgPY787Ot35W-175" vertex="1">
          <mxGeometry x="280" width="60" height="30" as="geometry" />
        </mxCell>
        <mxCell id="gtbVg4Q-vgPY787Ot35W-180" value="" style="rounded=0;whiteSpace=wrap;html=1;" parent="gtbVg4Q-vgPY787Ot35W-175" vertex="1">
          <mxGeometry x="17" y="50" width="493" height="930" as="geometry" />
        </mxCell>
        <mxCell id="gtbVg4Q-vgPY787Ot35W-404" value="Titel und Infos über mich" style="rounded=0;whiteSpace=wrap;html=1;" parent="gtbVg4Q-vgPY787Ot35W-175" vertex="1">
          <mxGeometry x="30" y="80" width="460" height="70" as="geometry" />
        </mxCell>
        <mxCell id="gtbVg4Q-vgPY787Ot35W-405" value="Vorstellung" style="rounded=0;whiteSpace=wrap;html=1;" parent="gtbVg4Q-vgPY787Ot35W-175" vertex="1">
          <mxGeometry x="30" y="160" width="460" height="90" as="geometry" />
        </mxCell>
        <mxCell id="gtbVg4Q-vgPY787Ot35W-451" value="Footer" style="rounded=0;whiteSpace=wrap;html=1;" parent="gtbVg4Q-vgPY787Ot35W-175" vertex="1">
          <mxGeometry x="30.00000000000011" y="860" width="470.75" height="90" as="geometry" />
        </mxCell>
        <mxCell id="bo42On-PqFUs2xds5eUP-13" value="" style="rounded=0;whiteSpace=wrap;html=1;" vertex="1" parent="gtbVg4Q-vgPY787Ot35W-175">
          <mxGeometry x="30" y="260" width="460" height="150" as="geometry" />
        </mxCell>
        <mxCell id="bo42On-PqFUs2xds5eUP-14" value="Skills" style="rounded=0;whiteSpace=wrap;html=1;" vertex="1" parent="gtbVg4Q-vgPY787Ot35W-175">
          <mxGeometry x="163.5000000000001" y="270" width="200" height="20" as="geometry" />
        </mxCell>
        <mxCell id="bo42On-PqFUs2xds5eUP-15" value="Motivation" style="whiteSpace=wrap;html=1;aspect=fixed;" vertex="1" parent="gtbVg4Q-vgPY787Ot35W-175">
          <mxGeometry x="120.00000000000011" y="300" width="80" height="80" as="geometry" />
        </mxCell>
        <mxCell id="bo42On-PqFUs2xds5eUP-16" value="Ausbildung" style="whiteSpace=wrap;html=1;aspect=fixed;" vertex="1" parent="gtbVg4Q-vgPY787Ot35W-175">
          <mxGeometry x="225.0000000000001" y="300" width="80" height="80" as="geometry" />
        </mxCell>
        <mxCell id="bo42On-PqFUs2xds5eUP-17" value="Skills" style="whiteSpace=wrap;html=1;aspect=fixed;" vertex="1" parent="gtbVg4Q-vgPY787Ot35W-175">
          <mxGeometry x="330.0000000000001" y="300" width="80" height="80" as="geometry" />
        </mxCell>
        <mxCell id="bo42On-PqFUs2xds5eUP-20" value="" style="rounded=0;whiteSpace=wrap;html=1;" vertex="1" parent="gtbVg4Q-vgPY787Ot35W-175">
          <mxGeometry x="28.88" y="430" width="470" height="250" as="geometry" />
        </mxCell>
        <mxCell id="bo42On-PqFUs2xds5eUP-21" value="Skills" style="rounded=0;whiteSpace=wrap;html=1;" vertex="1" parent="gtbVg4Q-vgPY787Ot35W-175">
          <mxGeometry x="163.5" y="440" width="200" height="20" as="geometry" />
        </mxCell>
        <mxCell id="bo42On-PqFUs2xds5eUP-22" value="Reiseziel" style="whiteSpace=wrap;html=1;aspect=fixed;" vertex="1" parent="gtbVg4Q-vgPY787Ot35W-175">
          <mxGeometry x="40" y="470" width="80" height="80" as="geometry" />
        </mxCell>
        <mxCell id="bo42On-PqFUs2xds5eUP-23" value="Reiseziel" style="whiteSpace=wrap;html=1;aspect=fixed;" vertex="1" parent="gtbVg4Q-vgPY787Ot35W-175">
          <mxGeometry x="133.5" y="470" width="80" height="80" as="geometry" />
        </mxCell>
        <mxCell id="bo42On-PqFUs2xds5eUP-26" value="Reiseziel" style="whiteSpace=wrap;html=1;aspect=fixed;" vertex="1" parent="gtbVg4Q-vgPY787Ot35W-175">
          <mxGeometry x="230" y="470" width="80" height="80" as="geometry" />
        </mxCell>
        <mxCell id="bo42On-PqFUs2xds5eUP-27" value="Reiseziel" style="whiteSpace=wrap;html=1;aspect=fixed;" vertex="1" parent="gtbVg4Q-vgPY787Ot35W-175">
          <mxGeometry x="320" y="470" width="80" height="80" as="geometry" />
        </mxCell>
        <mxCell id="bo42On-PqFUs2xds5eUP-28" value="Reiseziel" style="whiteSpace=wrap;html=1;aspect=fixed;" vertex="1" parent="gtbVg4Q-vgPY787Ot35W-175">
          <mxGeometry x="410" y="470" width="80" height="80" as="geometry" />
        </mxCell>
        <mxCell id="bo42On-PqFUs2xds5eUP-30" value="Reiseziel" style="whiteSpace=wrap;html=1;aspect=fixed;" vertex="1" parent="gtbVg4Q-vgPY787Ot35W-175">
          <mxGeometry x="40" y="570" width="80" height="80" as="geometry" />
        </mxCell>
        <mxCell id="bo42On-PqFUs2xds5eUP-31" value="Reiseziel" style="whiteSpace=wrap;html=1;aspect=fixed;" vertex="1" parent="gtbVg4Q-vgPY787Ot35W-175">
          <mxGeometry x="133.5" y="570" width="80" height="80" as="geometry" />
        </mxCell>
        <mxCell id="bo42On-PqFUs2xds5eUP-32" value="Reiseziel" style="whiteSpace=wrap;html=1;aspect=fixed;" vertex="1" parent="gtbVg4Q-vgPY787Ot35W-175">
          <mxGeometry x="230" y="570" width="80" height="80" as="geometry" />
        </mxCell>
        <mxCell id="bo42On-PqFUs2xds5eUP-33" value="Reiseziel" style="whiteSpace=wrap;html=1;aspect=fixed;" vertex="1" parent="gtbVg4Q-vgPY787Ot35W-175">
          <mxGeometry x="320" y="570" width="80" height="80" as="geometry" />
        </mxCell>
        <mxCell id="bo42On-PqFUs2xds5eUP-34" value="Reiseziel" style="whiteSpace=wrap;html=1;aspect=fixed;" vertex="1" parent="gtbVg4Q-vgPY787Ot35W-175">
          <mxGeometry x="410" y="570" width="80" height="80" as="geometry" />
        </mxCell>
        <mxCell id="bo42On-PqFUs2xds5eUP-35" value="" style="rounded=0;whiteSpace=wrap;html=1;" vertex="1" parent="gtbVg4Q-vgPY787Ot35W-175">
          <mxGeometry x="28.13" y="690" width="471.87" height="160" as="geometry" />
        </mxCell>
        <mxCell id="bo42On-PqFUs2xds5eUP-36" value="Mein Werdegang" style="rounded=0;whiteSpace=wrap;html=1;" vertex="1" parent="gtbVg4Q-vgPY787Ot35W-175">
          <mxGeometry x="64" y="710" width="200" height="20" as="geometry" />
        </mxCell>
        <mxCell id="bo42On-PqFUs2xds5eUP-44" style="edgeStyle=orthogonalEdgeStyle;rounded=0;orthogonalLoop=1;jettySize=auto;html=1;entryX=0;entryY=0.5;entryDx=0;entryDy=0;" edge="1" parent="gtbVg4Q-vgPY787Ot35W-175" source="bo42On-PqFUs2xds5eUP-37" target="bo42On-PqFUs2xds5eUP-42">
          <mxGeometry relative="1" as="geometry" />
        </mxCell>
        <mxCell id="bo42On-PqFUs2xds5eUP-37" value="" style="ellipse;whiteSpace=wrap;html=1;aspect=fixed;" vertex="1" parent="gtbVg4Q-vgPY787Ot35W-175">
          <mxGeometry x="70" y="760" width="20" height="20" as="geometry" />
        </mxCell>
        <mxCell id="bo42On-PqFUs2xds5eUP-38" value="" style="ellipse;whiteSpace=wrap;html=1;aspect=fixed;" vertex="1" parent="gtbVg4Q-vgPY787Ot35W-175">
          <mxGeometry x="133.5" y="760" width="20" height="20" as="geometry" />
        </mxCell>
        <mxCell id="bo42On-PqFUs2xds5eUP-39" value="" style="ellipse;whiteSpace=wrap;html=1;aspect=fixed;" vertex="1" parent="gtbVg4Q-vgPY787Ot35W-175">
          <mxGeometry x="193.5" y="760" width="20" height="20" as="geometry" />
        </mxCell>
        <mxCell id="bo42On-PqFUs2xds5eUP-40" value="" style="ellipse;whiteSpace=wrap;html=1;aspect=fixed;" vertex="1" parent="gtbVg4Q-vgPY787Ot35W-175">
          <mxGeometry x="264" y="760" width="20" height="20" as="geometry" />
        </mxCell>
        <mxCell id="bo42On-PqFUs2xds5eUP-41" value="" style="ellipse;whiteSpace=wrap;html=1;aspect=fixed;" vertex="1" parent="gtbVg4Q-vgPY787Ot35W-175">
          <mxGeometry x="330" y="760" width="20" height="20" as="geometry" />
        </mxCell>
        <mxCell id="bo42On-PqFUs2xds5eUP-42" value="" style="ellipse;whiteSpace=wrap;html=1;aspect=fixed;" vertex="1" parent="gtbVg4Q-vgPY787Ot35W-175">
          <mxGeometry x="410" y="760" width="20" height="20" as="geometry" />
        </mxCell>
        <mxCell id="bo42On-PqFUs2xds5eUP-45" value="inhalt" style="text;html=1;align=center;verticalAlign=middle;whiteSpace=wrap;rounded=0;" vertex="1" parent="gtbVg4Q-vgPY787Ot35W-175">
          <mxGeometry x="50" y="780" width="60" height="30" as="geometry" />
        </mxCell>
        <mxCell id="bo42On-PqFUs2xds5eUP-46" value="inhalt" style="text;html=1;align=center;verticalAlign=middle;whiteSpace=wrap;rounded=0;" vertex="1" parent="gtbVg4Q-vgPY787Ot35W-175">
          <mxGeometry x="113.5" y="780" width="60" height="30" as="geometry" />
        </mxCell>
        <mxCell id="bo42On-PqFUs2xds5eUP-47" value="inhalt" style="text;html=1;align=center;verticalAlign=middle;whiteSpace=wrap;rounded=0;" vertex="1" parent="gtbVg4Q-vgPY787Ot35W-175">
          <mxGeometry x="173.5" y="780" width="60" height="30" as="geometry" />
        </mxCell>
        <mxCell id="bo42On-PqFUs2xds5eUP-48" value="inhalt" style="text;html=1;align=center;verticalAlign=middle;whiteSpace=wrap;rounded=0;" vertex="1" parent="gtbVg4Q-vgPY787Ot35W-175">
          <mxGeometry x="244" y="780" width="60" height="30" as="geometry" />
        </mxCell>
        <mxCell id="bo42On-PqFUs2xds5eUP-49" value="inhalt" style="text;html=1;align=center;verticalAlign=middle;whiteSpace=wrap;rounded=0;" vertex="1" parent="gtbVg4Q-vgPY787Ot35W-175">
          <mxGeometry x="310" y="780" width="60" height="30" as="geometry" />
        </mxCell>
        <mxCell id="bo42On-PqFUs2xds5eUP-50" value="inhalt" style="text;html=1;align=center;verticalAlign=middle;whiteSpace=wrap;rounded=0;" vertex="1" parent="gtbVg4Q-vgPY787Ot35W-175">
          <mxGeometry x="390" y="780" width="60" height="30" as="geometry" />
        </mxCell>
        <mxCell id="gtbVg4Q-vgPY787Ot35W-233" value="&lt;span style=&quot;font-size: 36px;&quot;&gt;&lt;b&gt;about.html&lt;/b&gt;&lt;/span&gt;" style="text;html=1;align=center;verticalAlign=middle;whiteSpace=wrap;rounded=0;" parent="1" vertex="1">
          <mxGeometry x="1503.5" y="50" width="300" height="30" as="geometry" />
        </mxCell>
        <mxCell id="gtbVg4Q-vgPY787Ot35W-235" style="edgeStyle=orthogonalEdgeStyle;rounded=0;orthogonalLoop=1;jettySize=auto;html=1;exitX=0.5;exitY=0;exitDx=0;exitDy=0;entryX=0.5;entryY=0;entryDx=0;entryDy=0;" parent="1" source="gtbVg4Q-vgPY787Ot35W-6" target="gtbVg4Q-vgPY787Ot35W-174" edge="1">
          <mxGeometry relative="1" as="geometry" />
        </mxCell>
        <mxCell id="gtbVg4Q-vgPY787Ot35W-236" style="edgeStyle=orthogonalEdgeStyle;rounded=0;orthogonalLoop=1;jettySize=auto;html=1;exitX=0.5;exitY=0;exitDx=0;exitDy=0;entryX=0.5;entryY=0;entryDx=0;entryDy=0;" parent="1" source="gtbVg4Q-vgPY787Ot35W-7" target="gtbVg4Q-vgPY787Ot35W-233" edge="1">
          <mxGeometry relative="1" as="geometry" />
        </mxCell>
        <mxCell id="gtbVg4Q-vgPY787Ot35W-300" value="" style="swimlane;whiteSpace=wrap;html=1;startSize=30;" parent="1" vertex="1">
          <mxGeometry x="770" y="893" width="520" height="640" as="geometry" />
        </mxCell>
        <mxCell id="gtbVg4Q-vgPY787Ot35W-301" value="Kontakt" style="rounded=0;whiteSpace=wrap;html=1;" parent="gtbVg4Q-vgPY787Ot35W-300" vertex="1">
          <mxGeometry x="460" width="60" height="30" as="geometry" />
        </mxCell>
        <mxCell id="gtbVg4Q-vgPY787Ot35W-302" value="Über mich" style="rounded=0;whiteSpace=wrap;html=1;" parent="gtbVg4Q-vgPY787Ot35W-300" vertex="1">
          <mxGeometry x="400" width="60" height="30" as="geometry" />
        </mxCell>
        <mxCell id="gtbVg4Q-vgPY787Ot35W-303" value="Projekte" style="rounded=0;whiteSpace=wrap;html=1;" parent="gtbVg4Q-vgPY787Ot35W-300" vertex="1">
          <mxGeometry x="340" width="60" height="30" as="geometry" />
        </mxCell>
        <mxCell id="gtbVg4Q-vgPY787Ot35W-304" value="Home" style="rounded=0;whiteSpace=wrap;html=1;" parent="gtbVg4Q-vgPY787Ot35W-300" vertex="1">
          <mxGeometry x="280" width="60" height="30" as="geometry" />
        </mxCell>
        <mxCell id="gtbVg4Q-vgPY787Ot35W-305" value="" style="rounded=0;whiteSpace=wrap;html=1;" parent="gtbVg4Q-vgPY787Ot35W-300" vertex="1">
          <mxGeometry x="17" y="50" width="493" height="580" as="geometry" />
        </mxCell>
        <mxCell id="bo42On-PqFUs2xds5eUP-51" value="" style="rounded=0;whiteSpace=wrap;html=1;" vertex="1" parent="gtbVg4Q-vgPY787Ot35W-300">
          <mxGeometry x="27.57" y="67" width="192.43" height="383" as="geometry" />
        </mxCell>
        <mxCell id="bo42On-PqFUs2xds5eUP-52" value="Nachricht senden" style="rounded=0;whiteSpace=wrap;html=1;" vertex="1" parent="gtbVg4Q-vgPY787Ot35W-300">
          <mxGeometry x="33.79" y="87" width="180" height="40" as="geometry" />
        </mxCell>
        <mxCell id="bo42On-PqFUs2xds5eUP-53" value="Name" style="rounded=0;whiteSpace=wrap;html=1;" vertex="1" parent="gtbVg4Q-vgPY787Ot35W-300">
          <mxGeometry x="48.789999999999964" y="147" width="150" height="30" as="geometry" />
        </mxCell>
        <mxCell id="bo42On-PqFUs2xds5eUP-54" value="email" style="rounded=0;whiteSpace=wrap;html=1;" vertex="1" parent="gtbVg4Q-vgPY787Ot35W-300">
          <mxGeometry x="48.789999999999964" y="197" width="150" height="30" as="geometry" />
        </mxCell>
        <mxCell id="bo42On-PqFUs2xds5eUP-55" value="Betreff" style="rounded=0;whiteSpace=wrap;html=1;" vertex="1" parent="gtbVg4Q-vgPY787Ot35W-300">
          <mxGeometry x="48.789999999999964" y="243.5" width="150" height="30" as="geometry" />
        </mxCell>
        <mxCell id="bo42On-PqFUs2xds5eUP-56" value="Nachricht" style="rounded=0;whiteSpace=wrap;html=1;" vertex="1" parent="gtbVg4Q-vgPY787Ot35W-300">
          <mxGeometry x="48.79" y="287" width="150" height="93" as="geometry" />
        </mxCell>
        <mxCell id="bo42On-PqFUs2xds5eUP-57" value="Vereinbarung" style="rounded=0;whiteSpace=wrap;html=1;" vertex="1" parent="gtbVg4Q-vgPY787Ot35W-300">
          <mxGeometry x="48.789999999999964" y="397" width="150" height="30" as="geometry" />
        </mxCell>
        <mxCell id="bo42On-PqFUs2xds5eUP-58" value="" style="rounded=0;whiteSpace=wrap;html=1;" vertex="1" parent="gtbVg4Q-vgPY787Ot35W-300">
          <mxGeometry x="267.56999999999994" y="67" width="192.43" height="383" as="geometry" />
        </mxCell>
        <mxCell id="bo42On-PqFUs2xds5eUP-59" value="persönliche Infos" style="rounded=0;whiteSpace=wrap;html=1;" vertex="1" parent="gtbVg4Q-vgPY787Ot35W-300">
          <mxGeometry x="273.78" y="77" width="180" height="363" as="geometry" />
        </mxCell>
        <mxCell id="bo42On-PqFUs2xds5eUP-60" value="Footer" style="rounded=0;whiteSpace=wrap;html=1;" vertex="1" parent="gtbVg4Q-vgPY787Ot35W-300">
          <mxGeometry x="27.57000000000005" y="497" width="470.75" height="90" as="geometry" />
        </mxCell>
        <mxCell id="gtbVg4Q-vgPY787Ot35W-401" value="&lt;span style=&quot;font-size: 36px;&quot;&gt;&lt;b&gt;contact.html&lt;/b&gt;&lt;/span&gt;" style="text;html=1;align=center;verticalAlign=middle;whiteSpace=wrap;rounded=0;" parent="1" vertex="1">
          <mxGeometry x="883.5" y="843" width="300" height="30" as="geometry" />
        </mxCell>
      </root>
    </mxGraphModel>
  </diagram>
</mxfile>
